<svg height="512" viewBox="0 0 60 42" width="512" xmlns="http://www.w3.org/2000/svg"><path id="Shape" d="m40 2h-4.184c-.4222546-1.19435086-1.5492146-1.99474861-2.816-2h-6c-1.2667854.00525139-2.3937454.80564914-2.816 2-2.4929255-.11150161-4.9907884-.02053646-7.469.272-3.318608.57050081-6.4421494 1.96091842-9.087 4.045-.01021216.00305989-.02023036.00673323-.03.011-.026.015-.04.04-.064.058-4.75044185 3.7918683-7.52196697 9.5357751-7.534 15.614v1c.00542964 2.9246159 2.11669663 5.4201335 5 5.91v2.09c.00551113 4.9682782 4.03172183 8.9944889 9 9h10.184c.4222546 1.1943509 1.5492146 1.9947486 2.816 2h6c1.2667854-.0052514 2.3937454-.8056491 2.816-2h10.184c4.9682782-.0055111 8.9944889-4.0317218 9-9v-3.09c2.8833034-.4898665 4.9945704-2.9853841 5-5.91-.0044149-11.0438658-8.9561342-19.9955851-20-20zm-16 36h-10c-3.8641657-.0044086-6.99559136-3.1358343-7-7v-4.414c.172-2.2 1.329-5.949 7.11-6.592 3.2945507-.3092004 6.6140415-.2296535 9.89.237zm0-19.786c-3.3504263-.4624843-6.7433868-.53229-10.11-.208-5.713.636-8.727 4.126-8.911 8.862-1.75451564-.4657083-2.97678505-2.0527302-2.979-3.868-.13129491-2.8444714.40071781-5.6805031 1.554-8.284.5047618.9089467.79226626 1.9223999.84 2.961-.02952016.5382904.37296734 1.0030923.90994882 1.05083.53698148.0477376 1.01515077-.3387738 1.08105118-.87383.023-.236.126-2.295-1.724-5.225.88083151-1.4363008 1.95789648-2.74257869 3.2-3.881 2.174 4.1 1.464 6.549 1.443 6.619-.16173795.5154958.11522205 1.0662486.62548276 1.2438129.51026074.1775642 1.06929574-.082273 1.26251724-.5868129.051-.142 1.127-3.373-1.758-8.565 1.9722263-1.43991168 4.2183287-2.46086733 6.6-3 1.035 7.539-.3 10.009-.3 10.009-.2954723.4666806-.1566806 1.0845277.31 1.38s1.0845277.1566806 1.38-.31c.188-.3 1.735-3.074.578-11.418 1.9953547-.15546248 3.9980239-.19552922 5.998-.12zm10 20.786c0 .5522847-.4477153 1-1 1h-2v-10c0-.5522847-.4477153-1-1-1s-1 .4477153-1 1v10h-2c-.5522847 0-1-.4477153-1-1v-36c0-.55228475.4477153-1 1-1h2v24c0 .5522847.4477153 1 1 1s1-.4477153 1-1v-24h2c.5522847 0 1 .44771525 1 1zm19-8c-.0044086 3.8641657-3.1358343 6.9955914-7 7h-10v-16.178c7.057.578 13.716-.723 15.912 1.444 1.379 1.36 1.088 3.834 1.088 7.734zm1.956-5.116c-.673-8.137-9.116-5.239-18.956-6.07v-15.814c4.15 0 6.417-.2 9.888 1-.492 8.767-2.539 11.227-2.61 11.3-.3865993.3946075-.3801075 1.0279007.0145 1.4145s1.0279007.3801075 1.4145-.0145c.268-.268 2.525-2.8 3.137-11.894 2.2755216 1.09475095 4.2908484 2.66309867 5.911 4.6-.617 5.3-2.259 6.712-2.334 6.773-.4548065.3134216-.5694216.9361935-.256 1.391s.9361935.5694216 1.391.256c.222-.149 1.945-1.446 2.862-6.089 1.6922872 2.7931332 2.585401 5.9972049 2.582 9.263-.0021949 1.8401295-1.2577142 3.4421127-3.044 3.884z"/></svg>