<svg xmlns="http://www.w3.org/2000/svg">
<symbol id="heart">
<path d="M20.84 4.61a5.5 5.5 0 0 0-7.78 0L12 5.67l-1.06-1.06a5.5 5.5 0 0 0-7.78 7.78l1.06 1.06L12 21.23l7.78-7.78 1.06-1.06a5.5 5.5 0 0 0 0-7.78z"/>
</symbol>
<symbol id="search">
    <circle cx="10.5" cy="10.5" r="7.5"/><line x1="21" x2="15.8" y1="21" y2="15.8"/>
</symbol>
<symbol id="user">
    <path d="M20 21v-2a4 4 0 0 0-4-4H8a4 4 0 0 0-4 4v2" /><circle cx="12" cy="7" fill="none" r="4"/>
</symbol>
<symbol id="bag">
    <path d="M6 2L3 6v14a2 2 0 0 0 2 2h14a2 2 0 0 0 2-2V6l-3-4z"/>
    <line x1="3" x2="21" y1="6" y2="6"/>
    <path d="M16 10a4 4 0 0 1-8 0"/>
</symbol>
<symbol id="f"><path d="M16.75,9H13.5V7a1,1,0,0,1,1-1h2V3H14a4,4,0,0,0-4,4V9H8v3h2v9h3.5V12H16Z"/>
    
</symbol>
<symbol id="vk" >
   <path d="M21.54736,7H18.25688a.74281.74281,0,0,0-.65452.39156s-1.31237,2.41693-1.73392,3.231C14.73438,12.8125,14,12.125,14,11.10863V7.60417A1.10417,1.10417,0,0,0,12.89583,6.5h-2.474a1.9818,1.9818,0,0,0-1.751.8125s1.25626-.20312,1.25626,1.48958c0,.41974.02162,1.62723.04132,2.64a.72943.72943,0,0,1-1.273.50431,21.54029,21.54029,0,0,1-2.4982-4.54359A.69314.69314,0,0,0,5.5668,7C4.8532,7,3.42522,7,2.57719,7a.508.508,0,0,0-.47969.68481C3.00529,10.17487,6.91576,18,11.37917,18h1.87865A.74219.74219,0,0,0,14,17.25781V16.12342a.7293.7293,0,0,1,1.22868-.5315l2.24861,2.1127A1.08911,1.08911,0,0,0,18.223,18h2.95281c1.42415,0,1.42415-.98824.64768-1.75294-.54645-.53817-2.51832-2.61663-2.51832-2.61663A1.01862,1.01862,0,0,1,19.2268,12.307c.63737-.83876,1.67988-2.21175,2.122-2.79993C21.95313,8.70313,23.04688,7,21.54736,7Z"/>
</symbol>
<symbol id="i">
   <path d="M15.5,3h-7A5.5,5.5,0,0,0,3,8.5v7A5.5,5.5,0,0,0,8.5,21h7A5.5,5.5,0,0,0,21,15.5v-7A5.5,5.5,0,0,0,15.5,3Zm4,12.5a4.00454,4.00454,0,0,1-4,4h-7a4.00454,4.00454,0,0,1-4-4v-7a4.0045,4.0045,0,0,1,4-4h7a4.0045,4.0045,0,0,1,4,4Z"/><path d="M12,7.5A4.5,4.5,0,1,0,16.5,12,4.5,4.5,0,0,0,12,7.5ZM12,15a3,3,0,1,1,3-3A3.0034,3.0034,0,0,1,12,15Z"/><circle cx="16.70001" cy="7.29999" r="1"/>
</symbol>
</svg>

